<?xml version="1.0" standalone="no"?>
<!DOCTYPE svg PUBLIC "-//W3C//DTD SVG 20010904//EN"
 "http://www.w3.org/TR/2001/REC-SVG-20010904/DTD/svg10.dtd">
<svg version="1.0" xmlns="http://www.w3.org/2000/svg"
 width="54.000000pt" height="54.000000pt" viewBox="0 0 1024.000000 1024.000000"
 preserveAspectRatio="xMidYMid meet">

<g transform="translate(0.000000,1024.000000) scale(0.100000,-0.100000)"
fill="#000000" stroke="none">
<path d="M0 5120 l0 -5120 5120 0 5120 0 0 5120 0 5120 -5120 0 -5120 0 0
-5120z m7405 4032 c15 -57 24 -109 22 -116 -3 -7 -43 -23 -88 -35 -46 -13 -92
-26 -101 -28 -13 -4 -22 14 -48 97 -17 56 -30 106 -27 113 3 9 205 78 214 73
1 -1 13 -47 28 -104z m756 -194 l116 -123 -51 -60 c-28 -33 -64 -76 -79 -95
l-27 -35 -64 70 c-35 39 -66 68 -69 65 -2 -3 -43 -71 -92 -152 -48 -80 -100
-158 -115 -173 -72 -69 -225 -30 -287 71 -97 161 107 267 253 133 26 -24 19
-31 114 131 118 202 172 290 179 290 4 0 59 -55 122 -122z m-1150 -204 c30
-19 65 -50 77 -68 28 -40 29 -103 3 -154 -20 -38 -224 -243 -601 -602 -413
-393 -370 -347 -370 -402 0 -113 -96 -206 -202 -196 -58 6 -95 30 -125 84 -53
92 -6 197 101 225 93 25 76 10 561 473 116 110 254 242 307 293 l98 94 -30 53
c-17 29 -30 64 -30 79 0 58 40 118 95 143 45 20 57 17 116 -22z m-755 -199
c22 -34 11 -71 -27 -90 -28 -15 -33 -15 -55 0 -32 21 -45 54 -31 80 14 28 27
35 64 35 24 0 37 -7 49 -25z m2456 -200 l96 -100 -50 -75 c-27 -41 -54 -87
-60 -102 l-10 -28 -90 83 c-49 45 -92 83 -96 84 -4 2 -45 -58 -91 -132 -46
-75 -95 -145 -109 -155 -69 -55 -185 -45 -260 24 -35 32 -52 70 -52 119 0 131
172 172 271 66 16 -18 31 -30 33 -28 3 2 53 83 111 179 59 96 117 188 128 203
l20 29 32 -34 c17 -18 75 -78 127 -133z m-3954 63 c6 -29 -31 -40 -74 -22
l-39 16 30 13 c39 18 79 15 83 -7z m3172 -1 c0 -2 -10 -12 -22 -23 l-23 -19
19 23 c18 21 26 27 26 19z m-459 -78 l53 -62 -110 -106 c-60 -58 -292 -277
-515 -486 -400 -375 -490 -461 -724 -685 -66 -63 -163 -156 -215 -205 -52 -49
-138 -130 -190 -180 -52 -49 -138 -130 -190 -180 -52 -49 -149 -141 -215 -205
-553 -530 -838 -796 -876 -816 -44 -22 -98 -15 -121 17 -35 47 -54 26 427 479
143 135 424 403 625 595 201 193 564 539 805 770 242 231 557 533 700 671 302
291 476 454 486 454 4 0 31 -28 60 -61z m-1357 33 c2 -4 -2 -32 -10 -62 -12
-48 -12 -61 0 -104 8 -27 13 -53 10 -58 -19 -31 -54 37 -54 106 0 69 36 147
54 118z m-2626 -23 c56 -8 86 -17 89 -26 5 -14 -13 -141 -24 -170 -6 -15 -44
-17 -93 -4 -19 5 -52 12 -72 16 -44 7 -45 10 -27 128 9 61 14 74 28 71 9 -1
53 -8 99 -15z m4396 -18 c3 -4 -4 -7 -14 -6 -27 2 -33 10 -10 12 11 1 22 -2
24 -6z m61 -41 c16 -17 16 -20 3 -15 -9 4 -19 13 -22 21 -7 19 -2 18 19 -6z
m-2529 -45 c212 -23 469 -76 497 -104 12 -12 -120 -261 -136 -256 -93 31 -386
77 -572 90 -255 18 -708 -60 -1090 -187 -151 -51 -321 -119 -362 -146 l-23
-14 0 -387 c0 -367 1 -388 20 -418 11 -18 15 -33 10 -33 -5 0 -7 -7 -3 -16 4
-10 -1 -17 -16 -21 -31 -8 -26 -18 10 -19 43 -2 70 -33 76 -87 5 -41 2 -49
-25 -77 -34 -34 -59 -37 -103 -14 -40 20 -61 71 -49 114 5 18 7 37 3 43 -3 6
-2 7 3 4 6 -3 16 -2 24 3 12 8 14 75 11 445 -3 391 -5 439 -19 454 -25 24
-166 251 -160 256 3 3 49 23 104 46 437 178 919 304 1264 332 123 10 405 5
536 -8z m2448 -16 c-3 -6 -1 -14 5 -18 8 -5 4 -14 -11 -26 -13 -11 -17 -13
-10 -5 14 17 16 34 2 25 -14 -9 -13 8 2 23 15 15 21 16 12 1z m-4682 -68 c25
-22 32 -36 31 -63 -2 -65 -36 -98 -99 -98 -39 0 -84 51 -84 95 0 27 8 44 29
66 39 38 80 39 123 0z m4608 -15 c0 -3 -4 -8 -10 -11 -5 -3 -10 -1 -10 4 0 6
5 11 10 11 6 0 10 -2 10 -4z m-10 -36 c0 -5 -5 -10 -11 -10 -5 0 -7 5 -4 10 3
6 8 10 11 10 2 0 4 -4 4 -10z m-76 -52 c11 -10 9 -16 -10 -30 -28 -23 -46 -23
-42 0 2 11 12 16 28 15 14 -1 19 0 13 3 -7 3 -13 10 -13 15 0 12 8 11 24 -3z
m-71 -67 c5 -21 -14 -43 -47 -55 -10 -3 -16 -9 -13 -12 3 -3 -24 -31 -61 -62
-37 -31 -112 -99 -167 -152 -55 -53 -181 -173 -280 -265 -99 -93 -232 -218
-295 -279 -63 -60 -162 -155 -220 -210 -58 -56 -206 -198 -330 -316 -123 -118
-267 -255 -319 -305 -53 -49 -147 -140 -211 -200 -63 -61 -162 -156 -220 -210
-236 -225 -421 -406 -726 -707 -176 -175 -326 -318 -332 -318 -7 0 -29 7 -48
15 -123 51 -410 59 -569 15 -92 -25 -221 -83 -292 -131 -177 -120 -332 -336
-400 -556 -25 -83 -27 -100 -27 -278 0 -161 3 -204 22 -284 12 -52 20 -96 18
-98 -4 -4 -58 126 -79 192 -9 28 -28 102 -41 165 -59 275 -75 502 -42 600 80
236 274 463 510 595 78 44 203 89 303 111 103 22 321 23 419 1 77 -17 203 -62
218 -77 23 -23 11 -33 336 279 124 120 441 424 705 676 264 252 527 504 585
560 385 371 641 613 995 945 132 124 253 238 270 254 17 17 31 24 33 17 3 -9
8 -8 20 1 13 11 14 10 4 -9 -8 -14 -9 -24 -2 -28 5 -3 10 -2 10 4 0 6 13 6 36
-1 31 -8 39 -7 58 10 11 11 28 22 36 25 10 4 7 6 -7 6 -13 1 -23 -3 -23 -9 0
-5 -4 -10 -10 -10 -5 0 -10 4 -10 10 0 15 63 29 80 16 8 -6 12 -6 8 -2 -4 5 0
15 10 22 16 13 16 13 0 14 -19 0 -26 20 -7 20 6 0 9 7 5 15 -4 11 1 15 17 14
12 0 16 -3 10 -6 -21 -8 -15 -33 8 -33 11 0 17 4 14 10 -8 13 13 40 30 40 7 0
15 -9 18 -19z m-203 -46 c-7 -9 -15 -13 -19 -10 -3 3 1 10 9 15 21 14 24 12
10 -5z m1151 5 c24 13 25 2 2 -17 -19 -16 -18 -15 37 4 9 3 7 -1 -4 -9 -18
-14 -18 -16 -2 -39 18 -26 25 -27 36 -9 4 7 8 1 8 -14 0 -21 -52 -75 -262
-278 -337 -326 -454 -440 -836 -812 l-314 -306 -93 92 c-51 51 -93 96 -93 99
0 8 299 303 738 727 l333 322 55 0 c65 0 113 18 164 63 20 17 59 51 86 74 27
23 65 57 84 76 19 19 36 31 38 26 2 -5 12 -4 23 1z m-5703 -86 c13 -4 22 -14
22 -25 0 -17 -5 -18 -42 -12 -107 19 -189 0 -290 -68 -64 -43 -81 -48 -76 -21
4 23 118 98 176 116 48 15 169 20 210 10z m6136 -171 c47 -54 86 -100 86 -104
0 -12 -159 -141 -169 -137 -15 5 -161 182 -161 195 0 9 146 142 157 143 0 0
40 -44 87 -97z m-3823 42 c44 -19 90 -42 102 -50 19 -13 23 -13 42 4 38 37 69
36 112 -1 21 -19 57 -49 81 -67 23 -18 49 -46 57 -62 22 -41 19 -108 -6 -149
l-21 -34 71 -141 c39 -77 71 -143 71 -147 0 -5 -8 -8 -17 -8 -13 0 -39 41 -88
133 l-70 132 -52 6 c-85 11 -158 68 -183 145 -11 34 -10 68 6 121 6 21 -2 27
-80 62 -132 61 -149 64 -209 37 -61 -27 -71 -38 -86 -91 -6 -22 -15 -46 -19
-53 -5 -7 -69 -31 -144 -52 -74 -22 -199 -61 -279 -87 l-144 -48 -1 -55 c-3
-97 -53 -177 -132 -211 -138 -60 -283 34 -284 185 -1 97 52 177 145 216 42 18
61 21 116 15 61 -6 78 -3 191 34 244 79 552 171 573 172 12 0 40 9 62 19 50
24 81 19 186 -25z m-1843 -722 c-3 -754 -3 -758 -25 -798 -27 -51 -57 -79
-113 -104 -79 -36 -184 -18 -248 42 -44 41 -66 97 -66 167 0 72 15 109 65 159
55 55 85 66 184 66 l90 0 2 438 c1 281 -2 437 -8 437 -9 0 -494 -171 -571
-201 l-27 -11 -3 -526 c-3 -480 -5 -531 -21 -566 -29 -66 -67 -107 -121 -132
-131 -61 -280 10 -322 154 -14 47 -14 57 1 107 30 106 112 165 226 165 36 0
76 -6 91 -14 l28 -15 2 547 3 547 90 32 c50 18 198 71 330 118 132 47 274 98
315 114 41 16 81 29 88 30 10 1 12 -148 10 -756z m-1178 607 c29 -29 26 -74
-6 -99 -34 -27 -62 -27 -91 1 -46 43 -16 118 47 118 17 0 39 -9 50 -20z m5397
-82 c13 -12 23 -33 23 -47 0 -31 -36 -71 -65 -71 -64 0 -90 79 -39 119 34 27
52 26 81 -1z m-2402 -204 c94 -47 176 -93 183 -102 7 -9 10 -28 7 -42 -6 -28
-5 -29 89 -185 36 -60 66 -118 66 -127 0 -40 -31 -14 -70 60 -24 42 -62 107
-86 145 -24 37 -46 82 -49 100 -4 17 -9 35 -13 39 -15 14 -320 168 -333 168
-15 0 -334 -180 -401 -227 -34 -23 -58 -24 -58 -2 0 11 63 52 255 164 171 101
182 106 215 99 14 -3 102 -43 195 -90z m-3077 -240 c20 -8 52 -29 70 -47 60
-57 66 -78 70 -237 l4 -146 -27 -32 c-15 -18 -69 -57 -120 -88 l-94 -56 6 -48
c5 -44 3 -50 -29 -85 -28 -31 -41 -38 -76 -39 -33 0 -48 5 -69 26 -66 66 -2
168 105 168 26 0 199 98 245 138 26 23 25 259 -2 318 -63 138 -261 129 -261
-13 0 -37 6 -50 39 -86 l40 -42 -11 41 c-21 75 13 134 78 134 26 0 43 -8 65
-29 33 -34 36 -60 12 -102 -19 -32 -47 -45 -114 -53 -101 -12 -178 96 -140
197 13 33 66 85 94 90 46 9 79 7 115 -9z m3003 -9 c92 -46 139 -106 165 -204
24 -96 -7 -194 -87 -265 -68 -62 -116 -78 -267 -88 -188 -12 -266 -43 -367
-147 l-40 -42 -18 53 c-61 176 -12 374 129 527 123 133 250 196 380 187 40 -2
87 -12 105 -21z m3211 -134 c75 -81 145 -198 134 -226 -10 -27 -32 -16 -45 23
-22 58 -73 132 -139 196 -56 55 -70 86 -37 86 7 0 46 -36 87 -79z m-1235 34
c65 -46 17 -153 -77 -171 -24 -5 -35 -1 -60 24 -16 17 -30 40 -30 52 0 29 26
76 52 94 28 20 87 20 115 1z m-2817 -350 c0 -253 2 -301 16 -327 22 -43 13
-102 -21 -138 -33 -34 -60 -43 -76 -24 -6 8 -8 14 -4 14 4 0 -9 18 -29 40 -38
42 -45 75 -24 113 18 34 35 47 61 47 22 0 25 5 31 53 9 79 7 325 -3 331 -5 4
-38 -3 -73 -14 -77 -24 -77 -24 -72 -2 2 9 5 45 7 80 2 34 6 64 8 66 5 5 161
55 172 56 4 0 7 -133 7 -295z m3864 114 c212 -329 355 -734 411 -1162 8 -65
15 -151 15 -192 l0 -74 -72 -15 c-102 -22 -191 -37 -195 -33 -1 2 -7 59 -13
127 -20 245 -73 502 -150 725 -46 134 -156 366 -220 464 -22 35 -40 67 -38 71
4 9 191 179 198 180 3 0 31 -41 64 -91z m-1350 -60 c30 -35 31 -39 12 -83 -15
-37 -71 -76 -108 -76 -39 0 -78 42 -78 86 0 53 53 104 108 104 33 0 45 -6 66
-31z m-5109 -8 c8 -27 -4 -50 -31 -57 -42 -11 -72 34 -42 64 19 19 66 15 73
-7z m5358 -249 l97 -97 -211 -205 c-117 -112 -223 -213 -237 -224 l-25 -20
-93 100 -93 99 202 195 c111 107 213 207 227 223 13 15 27 27 30 27 3 0 49
-44 103 -98z m-578 -27 c35 -34 32 -73 -7 -119 -43 -48 -97 -59 -133 -26 -32
30 -39 64 -20 103 31 66 115 88 160 42z m-2474 -78 c69 -35 129 -102 129 -143
0 -15 -4 -23 -11 -19 -6 4 -8 13 -5 21 7 18 -76 102 -120 120 -42 18 -125 18
-167 1 -46 -20 -102 -86 -122 -146 -16 -50 -16 -94 2 -168 10 -41 -15 -24 -41
29 -39 78 -31 153 25 234 71 103 194 132 310 71z m4821 -77 c26 -26 29 -36 24
-63 -9 -46 -47 -80 -87 -79 -75 2 -109 95 -53 147 37 35 78 33 116 -5z m-4032
-21 c0 -18 -89 -163 -149 -242 -208 -275 -329 -376 -506 -422 -33 -9 -133 -22
-223 -31 -271 -25 -445 -81 -625 -201 -269 -178 -490 -486 -566 -786 l-19 -71
-61 -28 -61 -27 0 61 c0 98 39 304 82 433 49 150 116 277 207 399 196 261 531
473 778 493 66 5 75 4 105 -19 148 -113 342 -116 498 -9 30 21 91 80 135 132
135 161 233 252 315 293 78 39 90 42 90 25z m3054 -39 c33 -12 66 -66 66 -107
0 -26 -5 -34 -24 -39 -21 -5 -24 -12 -30 -96 -8 -114 -8 -197 0 -236 5 -26 12
-31 38 -34 26 -2 31 -7 31 -28 0 -24 -4 -25 -65 -30 l-65 -5 3 36 c2 20 -3 89
-11 155 -8 65 -13 145 -10 177 5 56 5 57 -20 57 -58 0 -38 118 25 145 18 8 34
14 35 15 1 0 13 -4 27 -10z m-406 -16 c38 -26 29 -65 -25 -114 -27 -24 -124
-116 -218 -204 -93 -88 -210 -199 -260 -246 -49 -47 -140 -132 -200 -190 -61
-58 -157 -150 -215 -205 -862 -821 -848 -805 -870 -928 -13 -67 0 -156 33
-226 28 -62 139 -172 204 -202 l52 -24 1 -80 c1 -187 -87 -459 -208 -649 -116
-181 -282 -346 -420 -416 -37 -19 -68 -42 -76 -58 -24 -46 -75 -90 -123 -106
-50 -17 -93 -21 -93 -8 0 4 -24 20 -53 35 -96 50 -125 149 -69 236 20 32 44
51 97 77 82 41 82 41 -106 -24 -211 -73 -289 -86 -504 -87 -107 0 -208 5 -248
13 -136 26 -349 109 -402 158 -12 11 -16 16 -10 12 32 -21 208 -81 272 -94
147 -28 241 28 251 149 8 100 -33 147 -130 147 -62 0 -126 19 -223 65 -205 98
-361 288 -427 520 -29 104 -32 296 -5 395 53 198 184 355 372 445 108 52 180
67 300 63 l90 -3 3 -62 3 -63 -73 0 c-159 -1 -299 -52 -400 -147 -130 -124
-182 -245 -182 -428 0 -212 86 -387 253 -513 85 -65 164 -98 289 -119 231 -39
471 43 635 217 82 87 129 171 155 276 l17 72 58 6 c150 15 229 89 252 237 5
31 56 86 403 430 218 217 521 511 672 654 151 143 421 399 600 570 179 171
350 334 380 362 84 77 107 86 148 57z m-5609 -38 c24 -25 40 -108 41 -203 0
-46 -3 -53 -19 -53 -46 0 -51 9 -51 89 0 42 -4 81 -8 87 -4 6 -23 16 -42 23
-19 6 -53 27 -75 46 l-40 35 86 0 c77 0 88 -2 108 -24z m2306 -60 c-8 -52 -43
-115 -75 -134 l-25 -14 22 18 c26 23 62 99 63 134 0 14 3 36 7 50 11 38 17 -1
8 -54z m2008 53 c56 -25 56 -100 0 -149 -45 -40 -89 -40 -126 -2 -32 34 -34
63 -7 108 30 47 85 65 133 43z m-4536 -171 l52 -52 -102 -98 c-97 -93 -104
-98 -145 -98 l-44 0 7 33 c16 81 133 267 168 267 6 0 35 -23 64 -52z m4841
-103 c51 -52 92 -99 92 -104 0 -4 -59 -65 -130 -135 l-130 -127 -38 39 c-96
98 -152 161 -152 171 0 5 24 32 53 58 28 26 86 81 127 120 41 40 77 73 81 73
3 0 46 -43 97 -95z m-3373 -24 c-78 -28 -135 -60 -200 -111 -83 -66 -100 -87
-119 -147 -23 -70 -76 -136 -130 -163 -41 -20 -47 -20 -74 -6 -73 38 -45 135
43 152 36 6 45 28 45 108 l0 41 63 1 c57 0 68 4 145 53 90 58 175 90 237 90
l40 0 -50 -18z m-1080 -33 c69 -17 152 -66 209 -122 31 -30 56 -59 56 -64 0
-5 -20 1 -43 13 -40 20 -64 22 -269 28 -124 4 -258 12 -297 18 -67 11 -70 13
-56 29 33 37 178 100 255 113 30 5 91 -1 145 -15z m5479 -200 c3 -13 7 -32 8
-42 3 -18 16 -19 301 -17 l297 2 0 -50 0 -51 -450 0 -450 0 0 45 0 45 99 0 99
0 7 37 c9 51 11 53 50 53 28 0 36 -4 39 -22z m204 6 c14 -4 21 -12 18 -20 -3
-7 0 -15 7 -18 7 -2 -5 -5 -25 -5 -21 -1 -38 4 -38 10 0 5 -4 7 -10 4 -14 -9
-12 3 3 20 14 17 15 17 45 9z m105 -21 c-13 -2 -33 -2 -45 0 -13 2 -3 4 22 4
25 0 35 -2 23 -4z m-1743 -115 c49 -51 90 -98 90 -104 0 -7 -77 -87 -172 -178
l-172 -167 -21 23 c-12 13 -56 60 -99 104 l-77 81 168 166 c92 92 174 167 181
167 7 0 53 -42 102 -92z m-3990 -57 c75 -31 182 -104 225 -154 55 -63 103
-171 115 -258 29 -197 -59 -402 -218 -511 -66 -45 -180 -78 -274 -78 -126 0
-171 14 -337 104 -10 5 -41 40 -71 78 -29 37 -57 68 -62 68 -4 0 -7 3 -6 8 1
4 -5 23 -14 42 -48 111 -57 245 -23 358 47 161 193 304 360 354 83 25 229 19
305 -11z m4858 -67 c35 -24 30 -78 -11 -117 -18 -18 -201 -196 -406 -397 -205
-201 -384 -371 -398 -378 -13 -7 -33 -10 -44 -7 -28 9 -52 50 -45 78 3 13 152
166 333 343 465 453 509 494 530 494 10 0 29 -7 41 -16z m1150 -20 l22 -6 0
-484 0 -484 -237 -2 c-131 0 -247 -2 -258 -3 -11 -1 -35 -3 -54 -4 -25 -1 -32
-5 -27 -16 14 -36 -1 -42 -112 -39 -162 5 -191 11 -203 40 -5 14 -9 48 -9 75
l0 50 330 -2 c182 -1 334 1 337 5 4 3 -6 6 -20 6 -26 0 -27 2 -27 55 l0 55
-260 0 -260 0 0 -35 0 -35 -50 0 -50 0 0 88 0 87 338 -1 c185 -1 325 0 310 3
-27 4 -28 7 -28 59 l0 54 -254 0 c-271 0 -266 1 -266 -48 0 -14 -10 -17 -50
-17 l-50 0 0 88 0 87 53 0 c30 0 57 -3 61 -7 10 -10 -5 -9 315 -11 l263 -2 -6
-217 c-3 -120 -3 -223 1 -229 5 -7 29 -13 55 -15 43 -4 47 -2 52 21 8 40 7
814 -2 825 -4 6 -28 11 -54 12 -38 1 -48 -2 -49 -15 0 -10 -1 -89 -1 -177 0
-88 -2 -168 -5 -177 -3 -12 -14 -18 -34 -18 l-29 0 2 58 3 57 -260 0 -260 0
-3 -27 c-3 -26 -6 -28 -53 -28 l-50 0 3 93 3 92 53 3 c42 2 52 0 52 -12 0 -14
31 -16 258 -16 l257 0 2 60 2 60 -258 0 c-250 0 -259 -1 -264 -20 -4 -17 -14
-20 -56 -20 l-51 0 0 64 c0 53 3 65 18 69 26 7 834 8 860 1z m-2765 -263 c-48
-46 -155 -150 -238 -230 -82 -81 -280 -273 -440 -426 -159 -153 -355 -342
-435 -419 -80 -78 -167 -161 -193 -186 l-47 -44 -35 34 c-19 19 -35 39 -35 45
0 6 37 47 83 91 45 43 252 245 461 449 208 203 492 479 630 612 l251 241 43
-41 43 -42 -88 -84z m3294 -12 c61 -30 93 -80 93 -147 0 -63 -18 -102 -62
-136 -77 -58 -166 -55 -231 7 -88 82 -66 220 43 275 55 28 101 28 157 1z
m-2977 -156 c0 -7 -5 -13 -12 -13 -6 0 -9 -3 -5 -6 3 -3 -24 -34 -60 -67 -36
-34 -86 -82 -112 -107 -26 -25 -166 -157 -311 -295 -146 -137 -395 -373 -553
-525 -159 -151 -306 -290 -328 -309 l-40 -35 -37 38 -37 38 175 170 c188 183
691 667 1034 994 l211 202 38 -36 c20 -20 37 -42 37 -49z m1087 -193 c58 -35
57 -91 -4 -155 -50 -52 -288 -281 -336 -322 -48 -42 -93 -44 -136 -7 -40 33
-43 88 -7 131 47 54 347 348 369 360 33 18 78 16 114 -7z m221 -206 c15 -10
22 -25 22 -47 0 -26 -16 -47 -107 -137 -60 -58 -218 -213 -352 -345 -312 -307
-331 -321 -331 -249 0 79 20 115 120 214 417 416 588 580 606 580 11 0 30 -7
42 -16z m1604 -202 c-3 -50 -87 -313 -143 -448 -78 -186 -186 -383 -307 -559
-64 -93 -219 -290 -254 -322 l-24 -23 -98 99 -99 99 97 116 c109 131 249 336
324 476 90 170 192 432 237 614 9 33 18 66 20 73 3 8 44 -4 127 -36 l123 -47
-3 -42z m-5927 -108 c6 -35 3 -40 -52 -96 -32 -33 -107 -105 -166 -161 l-108
-101 -22 28 c-22 26 -24 27 -117 24 l-95 -3 -3 -160 -3 -160 -31 -32 c-18 -18
-37 -33 -42 -33 -6 1 -30 18 -52 38 l-42 38 5 151 c7 182 3 203 -36 203 -52 0
-91 21 -121 65 -17 24 -30 48 -30 54 0 8 107 11 348 11 397 0 357 -9 477 104
39 36 73 65 76 66 4 0 10 -16 14 -36z m4895 -39 c0 -20 -32 -35 -74 -35 -32 0
-36 3 -36 25 0 24 3 25 55 25 42 0 55 -4 55 -15z m1297 -120 c33 -22 55 -71
48 -105 -9 -39 -50 -78 -91 -86 -91 -17 -167 84 -118 155 41 58 105 72 161 36z
m-1701 -6 c34 -20 42 -46 28 -83 -9 -23 -27 -20 -55 10 -71 77 -200 70 -256
-15 -23 -34 -31 -115 -17 -166 16 -59 127 -84 194 -44 44 27 56 43 71 97 10
37 15 42 40 42 36 0 109 -63 109 -94 0 -36 -56 -102 -108 -126 -73 -35 -143
-32 -225 9 -64 33 -104 71 -128 124 -9 19 -8 29 4 48 10 15 18 60 22 114 4 65
3 85 -4 74 -6 -10 -26 -26 -45 -37 -30 -18 -35 -18 -40 -5 -8 20 -8 58 1 66 3
4 89 7 191 7 170 0 187 -2 218 -21z m292 -71 c3 -57 9 -67 28 -49 5 5 20 11
34 13 22 3 25 8 28 51 l3 47 38 0 c38 0 38 0 44 -47 3 -27 4 -59 2 -73 -2 -14
-4 -42 -4 -62 l-1 -38 -135 0 -135 0 0 111 0 110 48 -3 47 -3 3 -57z m-4653
-216 l35 -66 -23 -24 c-12 -14 -41 -45 -64 -69 l-41 -44 -49 53 c-89 95 -133
145 -133 150 0 3 48 49 107 104 l108 98 12 -68 c7 -38 28 -96 48 -134z m5128
73 c-17 -35 -33 -46 -33 -22 0 7 9 20 20 30 12 10 18 23 14 29 -4 7 -3 8 4 4
8 -5 7 -17 -5 -41z m-33 -53 c0 -4 -9 -18 -20 -32 -15 -18 -18 -20 -13 -6 5
15 3 17 -8 12 -8 -4 -4 1 8 12 12 11 19 23 15 27 -4 5 -1 5 6 1 6 -4 12 -10
12 -14z m-60 -52 c0 -5 -5 -10 -11 -10 -5 0 -7 5 -4 10 3 6 8 10 11 10 2 0 4
-4 4 -10z m-5337 -213 l100 -108 -42 -42 -43 -42 -79 85 -79 84 0 85 0 84 21
-19 c12 -10 67 -68 122 -127z m4180 127 c54 -18 121 -81 139 -130 11 -31 15
-34 44 -28 26 5 35 1 53 -21 61 -79 -34 -171 -104 -100 -21 20 -25 34 -25 80
0 52 -3 58 -44 99 -34 35 -54 46 -89 51 -91 14 -156 -13 -195 -80 -18 -30 -32
-2 -30 62 l2 52 55 12 c31 6 61 13 66 14 27 9 86 3 128 -11z m1008 -33 c20
-20 29 -39 29 -61 0 -45 -47 -90 -95 -90 -51 0 -85 36 -85 90 0 85 90 121 151
61z m-347 -160 c92 -57 94 -194 4 -249 -42 -26 -83 -28 -138 -6 -103 41 -108
193 -8 254 42 25 102 26 142 1z m-4352 -87 l65 -90 -458 -462 -457 -461 -74
85 c-40 47 -74 89 -76 93 -3 8 927 936 932 930 2 -2 32 -45 68 -95z m3466 29
l3 -53 -75 0 c-72 0 -76 1 -78 23 -1 24 -1 58 1 69 2 10 40 16 96 14 l50 -1 3
-52z m-4485 -38 c36 -42 41 -45 87 -45 64 0 94 12 133 55 l32 35 79 -79 79
-79 -31 -39 c-17 -21 -51 -58 -76 -82 l-45 -45 -55 52 -55 52 -84 -1 c-71 -2
-89 1 -113 19 -35 25 -140 130 -133 134 10 7 135 67 139 67 3 1 23 -19 43 -44z
m4195 -261 c33 -23 45 -60 32 -99 -14 -41 -36 -61 -79 -69 -29 -5 -38 -1 -67
28 -42 42 -45 82 -8 125 20 24 34 31 63 31 20 0 47 -7 59 -16z m-2913 -69 l67
-74 -20 -28 c-42 -58 -292 -297 -300 -288 -5 6 -36 42 -70 81 -34 39 -62 74
-62 77 0 8 303 306 312 307 3 0 36 -34 73 -75z m3720 -15 c0 -8 -22 -28 -49
-45 -49 -30 -50 -30 -230 -35 -242 -7 -251 -12 -259 -167 -4 -83 -7 -97 -33
-129 -65 -83 -55 -77 -94 -58 -19 9 -36 18 -38 19 -12 9 18 37 54 51 25 9 49
25 54 35 6 10 10 49 10 88 0 78 11 115 43 149 48 51 70 56 243 54 l161 -2 54
29 c57 31 84 35 84 11z m623 -82 c31 -31 -11 -88 -50 -67 -34 18 -17 79 22 79
9 0 21 -5 28 -12z m-1670 -87 c48 -24 139 -112 152 -146 6 -15 10 -62 10 -106
0 -64 -3 -79 -15 -79 -12 0 -15 14 -15 63 0 105 -45 164 -134 174 -83 10 -146
-57 -146 -153 l0 -45 -37 3 -38 3 -2 82 c-1 74 1 85 27 126 19 31 43 52 81 71
63 31 69 31 117 7z m2220 -3 c26 -26 0 -88 -36 -88 -21 0 -52 29 -52 48 0 40
61 67 88 40z m-940 -103 c55 -62 89 -110 86 -119 -7 -17 -199 -196 -211 -196
-5 0 -53 49 -106 110 l-97 109 68 65 c77 74 151 136 161 136 4 0 48 -47 99
-105z m-3639 0 c40 -41 71 -79 69 -84 -4 -14 -499 -511 -508 -511 -9 0 -153
160 -149 165 30 35 504 505 509 505 4 0 39 -34 79 -75z m-1878 -58 c-10 -9
-11 -8 -5 6 3 10 9 15 12 12 3 -3 0 -11 -7 -18z m1132 -87 c37 -43 67 -82 67
-87 0 -4 -105 -113 -233 -241 l-232 -232 -78 84 -77 84 238 236 c130 130 239
235 242 235 3 0 35 -36 73 -79z m4640 -187 c11 -18 1 -30 -106 -121 -49 -41
-92 -71 -96 -66 -4 5 -32 38 -61 74 l-53 65 98 93 98 93 56 -62 c31 -34 60
-68 64 -76z m-756 -69 c34 -54 61 -108 60 -119 -1 -15 -37 -38 -143 -91 -77
-39 -167 -82 -200 -94 -434 -166 -826 -230 -1246 -202 -441 30 -788 118 -1110
284 -54 27 -98 54 -98 59 0 7 108 185 125 207 1 1 51 -17 111 -41 267 -109
543 -182 801 -212 170 -20 503 -20 659 0 296 39 602 132 859 263 55 28 105 50
110 48 6 -1 38 -47 72 -102z m-4765 -17 l76 -83 -70 -77 c-38 -42 -75 -77 -81
-77 -7 0 -45 42 -85 93 l-73 92 69 68 c38 37 74 67 79 67 5 0 43 -37 85 -83z
m1817 69 c22 -27 21 -57 -4 -82 -30 -30 -65 -31 -93 -1 -40 42 -12 97 48 97
21 0 43 -6 49 -14z m1725 -41 c-9 -22 -125 -75 -192 -87 -43 -8 -68 -7 -102 3
-25 7 -51 12 -57 10 -7 -1 -13 3 -13 9 0 8 19 10 63 5 74 -8 167 12 231 49 48
28 78 33 70 11z m-2484 -326 c7 -12 -22 -46 -127 -152 -75 -75 -139 -137 -143
-137 -4 0 -40 36 -80 81 l-73 81 139 139 139 139 68 -68 c38 -37 72 -74 77
-83z m-769 -34 c41 -42 75 -79 77 -83 1 -5 -29 -42 -68 -83 l-71 -74 -79 84
c-68 72 -77 86 -67 101 17 23 121 129 128 129 3 1 39 -33 80 -74z m1617 -98
c30 -29 32 -35 32 -98 l0 -67 61 -4 c36 -2 63 1 64 7 2 6 6 21 9 35 3 14 19
42 36 62 28 34 34 37 53 26 41 -21 147 -120 147 -137 0 -9 -22 -41 -50 -71
-27 -30 -48 -60 -45 -67 5 -16 -68 -81 -113 -100 -44 -18 -104 -20 -158 -5
-47 14 -138 88 -130 108 3 7 -16 34 -41 61 -85 90 -84 78 -6 196 76 116 75
116 141 54z m-615 -98 c25 -11 28 -17 24 -46 -6 -35 -3 -37 103 -58 48 -10 53
-14 38 -32 -9 -11 -13 -46 -12 -112 1 -53 -2 -103 -7 -112 -5 -9 -45 -35 -90
-58 l-81 -41 -104 41 c-60 23 -108 48 -114 59 -6 10 -10 70 -10 132 0 125 -7
108 86 212 34 38 37 39 87 33 29 -3 65 -11 80 -18z m-639 -232 c-72 -79 -100
-107 -109 -107 -6 0 -46 36 -90 80 l-80 80 73 73 73 74 81 -84 82 -83 -30 -33z
m2048 119 c14 -14 29 -23 32 -20 3 2 4 1 1 -2 -2 -4 2 -13 10 -21 34 -34 2
-143 -41 -143 -9 0 -12 -5 -8 -11 4 -8 0 -9 -15 -4 -11 3 -21 2 -21 -3 0 -6
-8 -13 -17 -16 -10 -3 -4 5 12 18 72 59 75 64 75 109 0 49 -21 75 -80 100
l-35 15 30 1 c19 1 40 -8 57 -23z m-172 -67 c-12 -41 -24 -53 -14 -14 7 32 13
45 19 45 2 0 0 -14 -5 -31z m23 -118 c-6 -8 -31 34 -26 42 3 5 11 -2 17 -15 7
-12 11 -25 9 -27z m42 -9 c-12 -12 -33 -10 -28 3 2 8 11 11 19 8 8 -3 12 -8 9
-11z"/>
<path d="M7515 7889 c-4 -6 -5 -12 -2 -15 2 -3 7 2 10 11 7 17 1 20 -8 4z"/>
<path d="M7470 7870 c0 -5 5 -10 10 -10 6 0 10 5 10 10 0 6 -4 10 -10 10 -5 0
-10 -4 -10 -10z"/>
<path d="M7413 7843 c4 -6 3 -13 -2 -15 -5 -1 -4 -8 3 -14 9 -8 18 -6 37 9 18
15 19 19 5 13 -10 -3 -26 -1 -34 6 -10 8 -13 9 -9 1z"/>
<path d="M8535 7920 c-16 -17 -16 -20 -3 -15 9 4 19 13 22 21 7 19 2 18 -19
-6z"/>
<path d="M1875 6458 c-27 -16 -35 -28 -35 -61 0 -36 39 -53 78 -35 37 19 48
42 36 75 -11 31 -45 41 -79 21z"/>
<path d="M4953 3544 c-84 -42 -57 -174 37 -174 46 0 76 21 90 64 26 79 -53
147 -127 110z"/>
<path d="M4725 3184 c-53 -57 -18 -154 55 -154 62 0 99 34 100 93 0 53 -35 87
-90 87 -31 0 -47 -6 -65 -26z"/>
<path d="M5169 3181 c-49 -49 -37 -121 25 -146 66 -28 131 19 129 91 -2 81
-94 114 -154 55z"/>
<path d="M4945 2801 c-3 -6 -10 -9 -14 -7 -4 3 -13 -11 -20 -31 -10 -26 -15
-32 -22 -22 -6 9 -9 10 -9 2 0 -6 5 -15 11 -18 6 -4 8 -13 6 -19 -3 -7 5 -30
17 -52 20 -37 24 -39 75 -42 66 -4 96 14 112 68 11 35 10 46 -5 77 -16 34 -16
35 1 29 9 -4 14 -3 9 1 -4 4 -17 9 -29 11 -102 12 -125 13 -132 3z"/>
<path d="M4896 2773 c-6 -14 -5 -15 5 -6 7 7 10 15 7 18 -3 3 -9 -2 -12 -12z"/>
<path d="M1744 5325 c-111 -24 -193 -77 -260 -167 -56 -77 -78 -159 -72 -275
12 -237 186 -398 428 -397 76 0 93 4 160 36 123 58 193 133 240 256 75 196
-24 432 -217 518 -49 22 -154 45 -198 43 -11 0 -48 -7 -81 -14z m175 -288 c9
-8 24 -17 33 -20 9 -3 24 -17 33 -31 84 -127 -36 -296 -181 -256 -67 19 -124
96 -124 167 1 120 156 211 239 140z"/>
<path d="M7208 4323 c23 -2 59 -2 80 0 20 2 1 4 -43 4 -44 0 -61 -2 -37 -4z"/>
<path d="M3767 1640 c-33 -26 -42 -69 -23 -113 17 -41 41 -57 89 -57 49 0 82
38 82 95 0 83 -84 125 -148 75z"/>
<path d="M3033 1615 c-13 -9 -28 -33 -34 -55 -10 -33 -9 -43 5 -64 29 -45 60
-59 100 -46 42 13 76 53 76 87 0 31 -25 79 -45 87 -29 11 -80 6 -102 -9z"/>
</g>
</svg>
